<svg width="29" height="28" viewBox="0 0 29 28" fill="none" xmlns="http://www.w3.org/2000/svg">
<path d="M14.4999 25.6668C8.05659 25.6668 2.83325 20.4434 2.83325 14.0002C2.83325 7.55684 8.05659 2.3335 14.4999 2.3335C20.9432 2.3335 26.1666 7.55684 26.1666 14.0002C26.1666 20.4434 20.9432 25.6668 14.4999 25.6668ZM14.4999 12.3503L11.9072 9.75752C11.5167 9.367 10.8835 9.367 10.493 9.75752L10.2573 9.99322C9.86675 10.3837 9.86676 11.0169 10.2573 11.4074L12.85 14.0002L10.2573 16.5929C9.86676 16.9834 9.86676 17.6165 10.2573 18.0071L10.493 18.2428C10.8835 18.6333 11.5167 18.6333 11.9072 18.2428L14.4999 15.6501L17.0926 18.2428C17.4831 18.6333 18.1163 18.6333 18.5068 18.2428L18.7425 18.0071C19.133 17.6165 19.133 16.9834 18.7425 16.5929L16.1498 14.0002L18.7425 11.4074C19.133 11.0169 19.133 10.3837 18.7425 9.99322L18.5068 9.75753C18.1163 9.367 17.4831 9.36701 17.0926 9.75753L14.4999 12.3503Z" fill="#D32F2F"/>
</svg>
