<svg width="29" height="28" viewBox="0 0 29 28" fill="none" xmlns="http://www.w3.org/2000/svg">
<path d="M21.054 6.96262L22.0425 5.97411C22.433 5.58359 23.0662 5.58359 23.4567 5.97412L23.6924 6.20981C24.0829 6.60034 24.0829 7.2335 23.6924 7.62403L22.7039 8.61253C24.1407 10.4088 25 12.6873 25 15.1665C25 20.9655 20.299 25.6665 14.5 25.6665C8.70101 25.6665 4 20.9655 4 15.1665C4 9.36752 8.70101 4.6665 14.5 4.6665C16.9792 4.6665 19.2577 5.52572 21.054 6.96262ZM14.3333 9.33317C13.781 9.33317 13.3333 9.78089 13.3333 10.3332V15.3332C13.3333 15.8855 13.781 16.3332 14.3333 16.3332H14.6667C15.219 16.3332 15.6667 15.8855 15.6667 15.3332V10.3332C15.6667 9.78088 15.219 9.33317 14.6667 9.33317H14.3333ZM9.83333 2.1665C9.83333 1.61422 10.281 1.1665 10.8333 1.1665H18.1667C18.719 1.1665 19.1667 1.61422 19.1667 2.1665V2.49984C19.1667 3.05212 18.719 3.49984 18.1667 3.49984H10.8333C10.281 3.49984 9.83333 3.05212 9.83333 2.49984V2.1665Z" fill="#FEB530"/>
</svg>
